<?xml version="1.0" encoding="UTF-8" standalone="no"?>
<!-- Created with Inkscape (http://www.inkscape.org/) -->

<svg
   version="1.1"
   id="svg1"
   width="822"
   height="999"
   viewBox="0 0 822 998.99996"
   sodipodi:docname="latin.svg"
   inkscape:version="1.3.2 (091e20e, 2023-11-25)"
   xmlns:inkscape="http://www.inkscape.org/namespaces/inkscape"
   xmlns:sodipodi="http://sodipodi.sourceforge.net/DTD/sodipodi-0.dtd"
   xmlns="http://www.w3.org/2000/svg"
   xmlns:svg="http://www.w3.org/2000/svg">
  <defs
     id="defs1" />
  <sodipodi:namedview
     id="namedview1"
     pagecolor="#ffffff"
     bordercolor="#000000"
     borderopacity="0.25"
     inkscape:showpageshadow="2"
     inkscape:pageopacity="0.0"
     inkscape:pagecheckerboard="0"
     inkscape:deskcolor="#d1d1d1"
     inkscape:zoom="1.7015059"
     inkscape:cx="330.00179"
     inkscape:cy="509.25477"
     inkscape:window-width="3830"
     inkscape:window-height="2089"
     inkscape:window-x="0"
     inkscape:window-y="35"
     inkscape:window-maximized="1"
     inkscape:current-layer="g1" />
  <g
     inkscape:groupmode="layer"
     inkscape:label="Image"
     id="g1">
    <path
       style="fill:#000000"
       d="m 641.43653,996.52254 c -5.42366,-3.4171 -8.52769,-10.2812 -7.37377,-16.3061 0.46521,-2.4289 4.59947,-12.5162 9.18724,-22.4162 4.58777,-9.9 9.34309,-21.30003 10.56737,-25.33336 2.68309,-8.83933 4.08806,-30.82569 2.76142,-43.21361 l -0.96427,-9.00423 -6.88221,1.10892 c -10.16581,1.638 -29.81678,1.3795 -31.60929,-0.4158 -1.13721,-1.13897 -1.14317,-4.00624 -0.0236,-11.33333 0.82433,-5.39474 1.82089,-10.85862 2.21456,-12.14196 0.39368,-1.28333 0.18634,-2.33333 -0.46076,-2.33333 -0.6471,0 -3.78177,5.06743 -6.96595,11.26095 l -5.78941,11.26096 0.84909,16.75302 c 0.91987,18.14975 1.51778,20.02064 10.52764,32.94152 10.45834,14.99814 7.6482,30.45025 -5.53773,30.45025 -6.79105,0 -10.99277,-1.6618 -17.57409,-6.9507 -8.89832,-7.15092 -15.04795,-17.75001 -17.70412,-30.51363 -4.28355,-20.58369 -5.80037,-24.62623 -10.93004,-29.13014 -2.63776,-2.31599 -5.48951,-3.98258 -6.33724,-3.70354 -1.65869,0.54597 -9.59335,10.45411 -10.46429,13.06693 -0.32917,0.9875 -1.63802,1.2327 -3.47232,0.65051 l -2.94402,-0.93439 3.54774,-6.05376 c 3.52069,-6.0076 3.53083,-6.10094 1.32973,-12.24253 -2.74379,-7.65583 -2.8467,-18.7382 -0.23211,-24.99578 3.0266,-7.24368 6.89825,-9.76385 15.07892,-9.81531 10.55029,-0.0664 14.70603,-4.80019 29.32181,-33.4006 6.56471,-12.84593 16.12639,-30.37708 21.24818,-38.95811 l 9.31234,-15.60187 0.95058,-19.70856 c 0.52282,-10.83971 1.48655,-22.40856 2.14162,-25.70856 3.29162,-16.58192 0.0177,-35.87381 -12.46391,-73.44588 -6.87248,-20.68742 -15.75789,-55.03638 -22.21742,-85.88747 -1.53544,-7.33333 -5.1171,-18.73333 -7.95925,-25.33333 -7.79599,-18.10374 -9.92924,-27.33495 -9.85987,-42.66667 0.0484,-10.69441 0.75718,-15.46193 3.58121,-24.08818 3.91632,-11.96275 12.85352,-27.68389 22.92021,-40.31819 28.50324,-35.77327 35.30621,-46.27152 35.30621,-54.48408 0,-5.29301 -4.0421,-14.6677 -14.13829,-32.79045 -16.63646,-29.86258 -34.06522,-53.18441 -39.53222,-52.89897 -0.91456,0.0478 -4.46369,4.41313 -7.88696,9.70084 -3.56096,5.50038 -17.53836,21.47162 -32.66667,37.32648 -24.82655,26.01887 -27.0944,28.03089 -37.1092,32.92305 -5.86666,2.86582 -15.29137,6.12984 -20.94379,7.25337 -12.92423,2.56895 -39.57534,2.61084 -64.32269,0.10109 -10.2299,-1.03746 -19.12852,-1.55954 -19.7747,-1.16017 -0.64619,0.39936 -0.80203,2.21169 -0.34632,4.02738 0.45571,1.8157 0.47453,4.41672 0.0418,5.78006 -0.72603,2.28751 -2.17315,2.44116 -18.75187,1.99104 -22.60549,-0.61374 -26.35477,-2.22516 -26.96847,-11.59084 l -0.39935,-6.09455 -10.26731,-1.65286 c -23.79621,-3.83078 -32.6,-10.24324 -42.78422,-31.16294 -3.62237,-7.44082 -9.10727,-20.72876 -12.18867,-29.52876 -6.65872,-19.01627 -9.61576,-25.13996 -13.42965,-27.81131 -6.15376,-4.31026 -8.92187,1.30081 -10.10242,20.47797 -1.00493,16.32436 1.38913,34.08805 6.22192,46.16595 2.09055,5.22461 9.07263,19.32461 15.51575,31.33334 24.09702,44.91222 25.20981,48.07123 25.0693,71.16739 -0.079,12.99199 -1.0114,20.38668 -4.95932,39.33334 -2.67408,12.83333 -6.40627,32.63333 -8.29374,44 -6.32685,38.10129 -7.87584,44.69362 -28.19614,120.00001 -8.40986,31.16667 -16.73389,62.06667 -18.49783,68.66667 -1.76395,6.6 -4.98014,18.29544 -7.14709,25.98987 -2.16695,7.69443 -3.72351,14.20628 -3.45901,14.47078 0.52338,0.52338 6.00706,-17.05947 9.25102,-29.66248 1.94549,-7.55831 2.95679,-9.87876 3.78603,-8.68706 15.64456,22.48283 52.14676,67.06808 67.2336,82.12181 10.38454,10.36176 11.55773,12.88909 11.65164,25.10042 0.0474,6.16377 -0.8026,9.75972 -3.70322,15.66667 l -3.76473,7.66667 H 317.164 c -3.56945,0 -6.79318,0.49069 -7.16383,1.09042 -0.37066,0.59973 -1.63526,10.34973 -2.81024,21.66667 -3.50374,33.74681 -7.09361,45.89179 -15.01133,50.78521 -6.36528,3.93396 -17.57029,4.05307 -22.62238,0.24048 -3.64232,-2.7487 -3.70267,-3.02362 -3.50273,-15.9565 0.1119,-7.23779 1.1994,-19.92189 2.41667,-28.1869 2.62687,-17.83594 2.83834,-31.00573 0.56582,-35.238 -1.64372,-3.06121 -1.65153,-3.05795 -3.50218,1.46548 -2.30296,5.62897 -2.1646,5.7669 -14.82029,-14.77387 -5.27743,-8.56552 -12.22491,-18.46553 -15.43884,-22 -6.84775,-7.53073 -5.45573,-10.02322 -11.41606,20.44102 -6.10737,31.2158 -7.2578,43.69324 -5.42763,58.86746 3.17026,26.28518 11.8449,53.00065 21.17137,65.20186 4.40772,5.7664 4.93795,7.3498 5.38134,16.0703 l 0.49186,9.6737 -5.14609,2.2869 c -3.83422,1.7039 -8.88498,2.2925 -19.81275,2.309 -12.50561,0.019 -15.46591,-0.4032 -20.09095,-2.864 -7.04024,-3.7459 -14.40721,-11.9839 -18.88929,-21.1227 -3.46559,-7.0662 -3.74318,-7.2899 -9.04807,-7.2899 -4.30151,0 -6.26755,-0.8295 -9.18637,-3.87611 -2.05193,-2.14175 -5.82924,-4.27305 -8.44178,-4.76317 l -4.7282,-0.88701 0.91291,-41.57017 c 1.57685,-71.80381 1.97123,-80.53675 5.59549,-123.90201 l 3.53789,-42.33183 -7.83082,-8.82814 c -23.67929,-26.69508 -35.75046,-42.91337 -38.94053,-52.31877 -2.6465,-7.80281 -3.04564,-23.58242 -1.80913,-71.52278 l 1.20365,-46.66667 6.21219,-33.33333 c 3.4167,-18.33334 8.03738,-42.8033 10.26819,-54.3777 5.67824,-29.46121 6.33028,-44.49777 2.71442,-62.59691 -3.99915,-20.01775 -12.51167,-46.97293 -20.08495,-63.59969 -12.540224,-27.53143 -19.196974,-57.89248 -22.582034,-102.99528 -1.74125,-23.20062 -7.01953,-34.27388 -20.88439,-43.81316 -8.02674,-5.52254 -12.62549,-6.26688 -15.95887,-2.58304 -2.41935,2.6737 -2.67081,5.23061 -3.05916,31.10613 -0.23272,15.50613 -0.53272,34.49296 -0.66666,42.19296 l -0.24354,14 6.59368,11.13836 c 6.58393,11.12189 6.59506,11.16086 7.52469,26.35069 1.03987,16.99115 2.46889,20.48534 9.44501,23.09467 9.49436,3.55124 10.43662,4.08608 10.43662,5.92394 0,2.44859 -5.42829,4.29429 -18.5272,6.2995 l -10.52204,1.61074 -7.14205,-4.24474 c -3.92813,-2.33461 -10.57221,-5.87864 -14.76464,-7.87561 -8.71894,-4.1531 -9.23036,-5.85143 -5.71074,-18.96421 1.08259,-4.03333 1.97547,-12.82013 1.98417,-19.52622 0.0182,-13.99466 -1.84895,-21.08006 -12.59795,-47.80712 C 4.159766,224.25884 0.45046599,206.89765 -0.06262401,180.19454 -0.34288401,165.60901 1.414536,159.0278 7.341576,152.46728 c 8.43317,-9.33452 35.32153,-23.43428 53.60844,-28.11128 8.48884,-2.17108 15.9269,-2.63057 48.791194,-3.01412 38.67958,-0.45141 38.79488,-0.46131 46.61228,-3.99899 l 7.83678,-3.54646 -0.89942,-5.6648 c -0.49468,-3.11565 -1.38614,-5.83645 -1.98103,-6.04623 -4.16135,-1.46744 -5.49675,-4.74833 -8.18868,-20.11838 -1.72385,-9.84267 -2.38873,-16.83611 -1.64792,-17.33334 0.68303,-0.45844 1.25801,-8.03353 1.27774,-16.83353 0.0419,-18.684178 1.67088,-23.163246 12.64393,-34.76563 9.74771,-10.3067714 16.84756,-12.92075645 35.11437,-12.92823045 17.77115,-0.0073 26.49748,2.79740005 36.39733,11.69821545 9.68009,8.703234 13.99079,19.125681 14.61197,35.328975 0.26708,6.96667 1.15124,14.01465 1.96478,15.66219 2.2232,4.50224 -3.78439,28.93869 -8.43792,34.32209 -4.29643,4.9703 -11.86205,27.34498 -11.86205,35.08104 0,4.86844 0.54881,6.02701 3.66667,7.74061 2.01667,1.10837 11.6094,6.33046 21.31719,11.60465 9.70779,5.27419 20.42886,11.9287 23.82461,14.78781 7.07777,5.95927 17.86206,22.05498 27.94859,41.71369 9.1349,17.80398 11.84035,26.29308 16.58966,52.0546 2.17333,11.78875 4.5911,23.11632 5.37281,25.17238 2.75733,7.25233 31.92333,38.84186 40.48696,43.8512 3.47756,2.03422 7.44961,3.1649 10.9391,3.11394 4.53656,-0.0663 7.35948,1.20789 16.41251,7.4079 12.72796,8.71681 15.63996,9.12757 34.13512,4.81506 13.6417,-3.18082 16.06525,-4.3542 28.83461,-13.9604 5.38952,-4.05446 12.80057,-8.35358 16.46899,-9.55361 12.02799,-3.93465 18.83147,-8.16934 24.75702,-15.40953 3.18257,-3.88865 11.55326,-13.07027 18.60154,-20.4036 13.99075,-14.55657 18.80065,-21.80165 21.24432,-32 2.16589,-9.03906 8.20049,-19.21873 17.07617,-28.80553 8.55814,-9.24381 14.13169,-12.7759 29.26188,-18.54394 13.80038,-5.26107 21.03546,-10.10757 25.89842,-17.34835 4.95006,-7.37046 4.91147,-11.76765 -0.14583,-16.61285 -2.18698,-2.09526 -4.94737,-6.3522 -6.1342,-9.45986 -1.83313,-4.79997 -1.91115,-6.6219 -0.51846,-12.10655 3.20593,-12.62553 3.04601,-22.99248 -0.60468,-39.19853 -1.88815,-8.38183 -3.433,-18.91283 -3.433,-23.40223 0,-6.21072 -0.65377,-8.9937 -2.73408,-11.63838 -2.1345,-2.71357 -2.53647,-4.52921 -1.83297,-8.27921 1.46046,-7.7849 8.3919,-16.8538 15.6218,-20.4391 6.12051,-3.035158 6.29306,-3.272858 4.11929,-5.674844 -3.1201,-3.447668 -1.98757,-4.019968 5.27146,-2.663835 3.42164,0.639233 6.22117,0.724653 6.22117,0.189822 0,-0.534831 -3.3,-3.163496 -7.33333,-5.841479 -4.80055,-3.187383 -7.33334,-5.78537 -7.33334,-7.522107 0,-3.677833 2.66646,-3.331643 11.99266,1.557026 7.5345,3.949478 11.79799,4.380577 8.25179,0.834371 -1.96766,-1.967655 -2.08527,-9.044445 -0.15032,-9.044445 0.7851,0 4.23628,2.368435 7.66929,5.263189 10.74434,9.059765 12.05205,9.311279 48.49125,9.326416 29.08246,0.01208 34.54159,0.375602 51.15123,3.406137 25.60603,4.671984 51.44634,11.799249 62.64417,17.278509 11.13193,5.447 16.15845,12.26099 14.5707,19.75214 -3.57902,16.88608 -28.74366,50.68178 -74.57059,100.14707 l -14.67502,15.84013 -0.23305,15.49253 -0.23304,15.49253 6.25427,6.66735 c 8.60351,9.17176 17.86727,21.50472 21.46583,28.57774 4.61296,9.06685 3.36401,23.85265 -3.7978,44.96052 -5.1331,15.12868 -5.49803,17.18263 -5.49803,30.94451 0,12.89399 -0.66607,17.29317 -5.31774,35.12194 -2.92476,11.20991 -6.85025,28.78488 -8.72332,39.05549 -3.88385,21.2963 -5.94175,30.29389 -11.41414,49.90507 -4.80765,17.22895 -4.91451,26.14621 -0.53543,44.67924 7.70991,32.62967 9.03191,45.23691 8.95751,85.42286 -0.0712,38.43661 -2.83016,81.78135 -6.24975,98.18538 -2.81674,13.51209 -5.11882,17.17178 -27.8959,44.34687 l -5.17876,6.17873 1.65994,16.97785 c 2.91785,29.84368 2.40517,28.22662 10.44594,32.94767 13.95728,8.19486 28.87461,23.87298 35.22963,37.02636 6.58622,13.63191 0.23404,42.24442 -11.27279,50.77671 -3.05813,2.2676 -4.16413,2.44605 -7.03968,1.13587 -3.33725,-1.52056 -3.36498,-1.64441 -1.27354,-5.68881 1.17589,-2.27393 1.79703,-4.47538 1.38031,-4.8921 -0.41673,-0.41673 -4.81097,0.85557 -9.76499,2.82733 -4.95401,1.97176 -13.11714,4.42832 -18.14028,5.45902 -5.02314,1.03071 -9.44543,2.18645 -9.8273,2.56832 -1.91109,1.91109 1.49535,13.31421 5.57326,18.65656 6.95007,9.10508 7.38703,10.52136 7.38703,23.94285 0,12.60289 -0.006,12.62603 -3.70313,13.9148 -3.14334,1.09578 -4.0287,2.57679 -5.85678,9.7971 -7.12848,28.15518 -11.86914,44.43158 -14.04034,48.20578 -3.24036,5.6326 -10.66361,9.1517 -20.8431,9.8809 -6.70821,0.4806 -9.0365,0.077 -12.63689,-2.1915 z M 162.51677,715.72151 c 0,-1.05672 -0.6,-1.92131 -1.33334,-1.92131 -0.73333,0 -1.33333,1.23541 -1.33333,2.74535 0,1.50995 0.6,2.37454 1.33333,1.92131 0.73334,-0.45322 1.33334,-1.68863 1.33334,-2.74535 z m 0.66641,-18.75066 c 0.335,-8.3592 0.16206,-10.27024 -0.58857,-6.50399 -1.97771,9.92313 -2.68297,21.13847 -1.23843,19.69392 0.74394,-0.74394 1.56609,-6.67941 1.827,-13.18993 z m 5.44544,-43.17066 c 4.24471,-29.92797 11.06776,-64.00459 18.55435,-92.66667 7.5568,-28.93095 7.96849,-30.89365 4.61454,-22 -9.95838,26.40656 -25.09198,101.94134 -27.11441,135.33334 -0.73167,12.08048 -0.60477,11.4158 3.94552,-20.66667 z m 70.84574,-259.87723 c 12.72218,-4.15742 29.61259,-11.95155 35.04241,-16.17043 1.83333,-1.42448 -2.66667,0.35344 -10,3.95092 -7.33334,3.59747 -19.03334,8.45925 -26,10.80394 -6.96667,2.3447 -12.91667,4.49476 -13.22223,4.77793 -1.4169,1.31309 3.28206,0.19886 14.17982,-3.36236 z M 695.88101,148.3147 c 3.99461,-3.75034 10.01713,-8.40034 13.38337,-10.33334 3.36624,-1.933 10.7024,-8.63048 16.30257,-14.8833 5.60018,-6.25282 13.50758,-14.23975 17.57202,-17.74872 6.74303,-5.82152 18.1712,-20.55172 17.95485,-23.1427 -0.0493,-0.59024 -4.0382,-4.33352 -8.86426,-8.31841 -6.50702,-5.37286 -12.1432,-8.52263 -21.80921,-12.18805 -17.99217,-6.82277 -28.93813,-9.48709 -32.07631,-7.80759 -3.28314,1.75708 -3.14948,2.82687 0.81898,6.55505 4.1627,3.91065 5.19946,9.48175 3.35331,18.01918 -0.79288,3.66666 -2.02948,12.27836 -2.74798,19.13711 -0.71851,6.85874 -2.56391,17.95874 -4.1009,24.66667 -1.53698,6.70792 -3.58491,15.79622 -4.55094,20.19622 -0.96604,4.4 -2.16037,9.05 -2.65407,10.33334 -1.33313,3.46533 -0.53805,2.98461 7.41857,-4.48546 z"
       id="path1" />
  </g>
</svg>
