<?xml version="1.0" encoding="UTF-8" standalone="no"?>
<!-- Created with Inkscape (http://www.inkscape.org/) -->

<svg
   version="1.1"
   id="svg1"
   width="767"
   height="1080"
   viewBox="0 0 767 1080"
   sodipodi:docname="standard.svg"
   inkscape:version="1.3.2 (091e20e, 2023-11-25)"
   xmlns:inkscape="http://www.inkscape.org/namespaces/inkscape"
   xmlns:sodipodi="http://sodipodi.sourceforge.net/DTD/sodipodi-0.dtd"
   xmlns="http://www.w3.org/2000/svg"
   xmlns:svg="http://www.w3.org/2000/svg">
  <defs
     id="defs1" />
  <sodipodi:namedview
     id="namedview1"
     pagecolor="#ffffff"
     bordercolor="#000000"
     borderopacity="0.25"
     inkscape:showpageshadow="2"
     inkscape:pageopacity="0.0"
     inkscape:pagecheckerboard="0"
     inkscape:deskcolor="#d1d1d1"
     inkscape:zoom="1.6204819"
     inkscape:cx="429.81041"
     inkscape:cy="581"
     inkscape:window-width="3830"
     inkscape:window-height="2089"
     inkscape:window-x="0"
     inkscape:window-y="35"
     inkscape:window-maximized="1"
     inkscape:current-layer="g1" />
  <g
     inkscape:groupmode="layer"
     inkscape:label="Image"
     id="g1">
    <path
       style="fill:#000000"
       d="m 470.39121,1079.3606 c -1.1,-0.2167 -4.475,-0.8692 -7.5,-1.4501 -7.55049,-1.4499 -23.053,-6.5736 -31.53628,-10.4228 -5.07759,-2.304 -8.69044,-4.9059 -12.97855,-9.347 -4.43364,-4.5919 -6.63693,-6.1543 -8.67853,-6.1543 -3.16755,0 -4.24932,1.6497 -5.2134,7.9504 -1.282,8.3784 -3.52903,8.8973 -12.48584,2.8829 -3.91954,-2.6319 -7.33363,-4.1666 -9.26879,-4.1666 -2.31241,0 -4.00702,1.0217 -6.91099,4.1666 -2.11605,2.2917 -4.71202,4.1667 -5.76881,4.1667 -1.05679,0 -3.07444,-1.5117 -4.48367,-3.3593 -3.74496,-4.9099 -8.1757,-6.6407 -16.99947,-6.6407 h -7.52208 l -4.73488,-7.1223 c -8.22491,-12.372 -17.70692,-16.5712 -34.80384,-15.413 -9.52632,0.6453 -10.31507,0.5499 -13.55559,-1.6397 -1.89239,-1.2788 -4.56709,-4.5138 -5.94377,-7.189 -1.50971,-2.9338 -4.0831,-5.9102 -6.48451,-7.5 -4.3756,-2.897 -7.90903,-3.1505 -23.1692,-1.6629 -7.09868,0.6921 -8.51233,0.5418 -12.09468,-1.2858 -2.23106,-1.1382 -5.42422,-3.6272 -7.09589,-5.5312 -4.72557,-5.3821 -6.98817,-6.255 -10.14611,-3.9145 -2.91402,2.1598 -6.9712,11.8852 -7.06568,16.937 -0.0733,3.9178 -2.3284,6.3214 -5.93087,6.3214 -3.90185,0 -5.12857,-1.7297 -5.12857,-7.2314 0,-3.5914 -0.42877,-4.9959 -1.67067,-5.4725 -2.74371,-1.0528 -12.88619,4.9419 -27.29316,16.1316 -15.03331,11.6762 -20.66398,14.8171 -29.76144,16.6016 -8.06545,1.5821 -17.77552,0.1984 -32.17622,-4.5854 -11.49712,-3.8192 -14.418187,-5.2638 -12.34454,-6.1047 0.68968,-0.2797 7.21468,-4.4741 14.5,-9.321 27.98897,-18.6207 40.09579,-33.20334 48.16831,-58.01824 4.90709,-15.08439 9.16771,-34.06904 20.04754,-89.32876 5.28752,-26.85582 11.41191,-55.9911 13.60975,-64.74508 3.11486,-12.40646 3.75945,-16.35844 2.92307,-17.92124 -0.59016,-1.1027 -1.50079,-2.00492 -2.02364,-2.00492 -2.15498,0 -6.22119,8.41635 -11.3536,23.5 -9.22192,27.10233 -13.10765,35.03817 -46.02639,94 -11.05445,19.8 -24.14901,43.875 -29.09901,53.5 -10.07586,19.592 -9.36804,19.0126 -18.764197,15.3584 -4.32966,-1.6839 -5.01372,-1.7144 -7.5,-0.3345 -2.90132,1.6102 -3.75178,3.1138 -13.18337,23.30744 -7.19245,15.3996 -12.31405,22.8133 -22.338014,32.335 -12.57162,11.9418 -34.454662,21.0512 -42.1487659,17.5456 -8.19207197,-3.7326 -11.02283,-23.9807 -5.146919,-36.8154 2.244781,-4.9032 14.2670009,-19.2821 32.2113069,-38.52554 10.296924,-11.0424 11.369962,-13.9126 11.369962,-30.41265 0,-21.69922 2.603368,-28.87336 15.00061,-41.33743 8.60506,-8.65144 7.72812,-6.7576 15.33673,-33.12092 8.59695,-29.78784 31.420637,-101.70196 34.189847,-107.72723 5.05437,-10.99733 12.30211,-20.71839 23.91756,-32.07953 14.82173,-14.49721 17.62398,-19.8816 21.43863,-41.19324 2.84651,-15.90278 6.82738,-29.50556 16.10224,-55.02195 5.25697,-14.4626 8.15845,-23.99794 8.57191,-28.17048 1.17948,-11.90286 -4.84277,-71.61031 -17.53069,-173.80757 -7.83995,-63.14834 -8.81522,-74.37769 -9.90089,-114 -1.02607,-37.44713 -0.23898,-35.94224 -21.18017,-40.49584 -14.52161,-3.15768 -35.263107,-9.8306 -45.945777,-14.78159 -10.35276,-4.79809 -19.26285,-11.64311 -23.53896,-18.0834 -7.83558,-11.80123 -8.3584,-21.35764 -2.42287,-44.28663 4.67456,-18.05787 5.5982,-20.47545 9.83401,-25.74004 1.7203,-2.13813 3.12782,-4.2342 3.12782,-4.65793 0,-0.42374 -2.8125,-5.05644 -6.25,-10.29489 -3.4375,-5.23846 -7.75061,-12.19 -9.58468,-15.44787 -1.83407,-3.25787 -5.434074,-8.50992 -8,-11.67121 -2.565926,-3.1613 -5.540007,-6.82528 -6.609069,-8.14219 -1.544907,-1.90308 -1.750099,-2.95908 -1,-5.1464 1.370283,-3.9958 20.816979,-13.64434 30.766099,-15.2647 9.03988,-1.47227 12.68509,-3.82757 20.73216,-13.395773 3.51889,-4.18406 6.858667,-7.4549 7.421737,-7.26855 1.49352,0.49431 10.45523,24.838043 12.18725,33.105643 1.07714,5.14161 1.29578,9.8218 0.80119,17.14997 -1.0043,14.88023 0.55732,17.2676 21.53531,32.92275 5.775,4.30968 16.44149,12.71795 23.70332,18.68504 15.05403,12.37 18.74588,14.45478 33.17672,18.73492 11.55442,3.427 17.21331,3.87606 19.16779,1.52105 1.7927,-2.16006 9.10847,-6.33924 13.1179,-7.49367 1.83385,-0.52802 8.45097,-1.43778 14.70471,-2.02168 6.25374,-0.58391 15.25374,-2.17483 20,-3.53538 14.23067,-4.07934 37.97373,-13.50852 40.58152,-16.11631 2.1113,-2.11131 4.54804,-9.49297 4.54804,-13.77749 0,-3.05148 2.36414,-6.49783 4.45741,-6.49783 1.17501,0 5.2211,2.02605 8.99132,4.50234 11.7469,7.7154 18.401,8.14181 30.11086,1.9296 7.72253,-4.09688 10.30378,-4.25923 14.29693,-0.89921 4.02231,3.38454 5.54402,8.36105 4.783,15.64203 -0.90471,8.65581 -1.62807,10.82524 -3.6095,10.82524 -0.96425,0 -5.6279,-1.81576 -10.36367,-4.03502 -25.52771,-11.96269 -43.91222,-1.43274 -48.34965,27.69284 -2.59828,17.05407 -0.53132,30.18977 5.35765,34.04838 3.30378,2.16471 11.98563,1.89819 19.57386,-0.6009 10.66569,-3.51261 19.09778,-5.07353 29.75747,-5.50859 8.63664,-0.3525 10.58236,-0.74031 12.29201,-2.44995 1.63594,-1.63595 2.96749,-7.34466 6.84329,-29.33896 2.64667,-15.01929 5.26303,-28.3203 5.81413,-29.5578 1.2913,-2.89959 3.2659,-2.83442 11.12248,0.36709 10.17717,4.14714 41.87796,15.49577 47.92241,17.15584 7.98481,2.19297 11.77404,0.43218 15.51215,-7.20823 2.34208,-4.78704 2.67419,-6.47028 2.19421,-11.12084 -0.62193,-6.02589 -3.39658,-11.35564 -7.21379,-13.85677 -1.35971,-0.89092 -7.98929,-3.18314 -14.73239,-5.09383 -13.19398,-3.73858 -16.37591,-5.04949 -17.14947,-7.06536 -0.27246,-0.71 0.38341,-4.39623 1.45748,-8.19162 2.42253,-8.56042 3.70164,-21.18446 2.94662,-29.08137 -0.31463,-3.29076 -0.40425,-6.48659 -0.19917,-7.10184 0.20509,-0.61525 3.14297,-2.39283 6.52862,-3.95018 7.9795,-3.67044 10.66361,-6.67573 15.7016,-17.580443 5.66019,-12.25146 12.57145,-21.91938 22.44698,-31.40028 8.88667,-8.531561 13.93059,-11.686525 20.31593,-12.707581 3.43129,-0.548686 5.32498,0.01421 13.47616,4.005778 7.06274,3.458563 13.02361,5.43023 23.34947,7.723263 19.9142,4.42227 26.17642,8.40011 29.91772,19.0041 2.02751,5.74656 2.94596,6.62574 8.70996,8.33746 14.34462,4.25989 22.8671,15.332833 21.39138,27.793023 -1.0892,9.1966 -12.42396,25.62723 -22.60644,32.76983 -10.35798,7.26571 -12.61674,14.04201 -8.07114,24.21349 1.17035,2.61884 1.8643,5.18805 1.54211,5.70937 -0.32219,0.52131 -2.72818,0.85388 -5.34665,0.73904 -4.37173,-0.19173 -5.2978,0.21848 -11.33069,5.01899 -6.48541,5.1606 -6.59285,5.20236 -8.36023,3.24943 -0.98472,-1.0881 -3.03205,-1.97836 -4.54963,-1.97836 -2.25111,0 -3.35307,0.96509 -5.98383,5.24063 -4.19635,6.81993 -5.01707,9.9216 -3.79574,14.34488 1.36719,4.95154 8.30139,12.22763 14.34878,15.05624 5.82193,2.72316 13.82247,3.05495 20,0.82941 5.11775,-1.84373 8.6521,-1.83237 17.63223,0.0566 31.57483,6.64198 56.94416,9.43028 94.86777,10.42677 27.8479,0.73174 31.05011,0.99617 36.82649,3.04106 8.21524,2.90826 14.1186,7.43625 16.92351,12.98063 6.0641,11.98674 0.004,18.61569 -26.58465,29.08111 -13.26068,5.21943 -23.22103,7.7417 -34.76076,8.80249 -7.24061,0.6656 -10.2331,1.43562 -13.87622,3.57064 -8.63122,5.05828 -16.52837,18.69825 -16.52837,28.54788 0,1.98843 1.81372,8.99426 4.0305,15.5685 16.38394,48.58947 57.11708,182.0614 60.4116,197.95316 4.02031,19.39271 2.59482,43.65184 -2.99573,50.98142 -3.69354,4.84248 -5.41149,11.72199 -4.23782,16.97025 1.1829,5.28949 3.88405,9.79689 17.08563,28.51065 21.85633,30.98222 35.08411,47.73982 53.39968,67.64935 l 10.22206,11.11166 -8.20796,0.5595 c -5.27613,0.35964 -12.13709,1.80424 -19.20796,4.04431 -6.05,1.91665 -13.7,4.23872 -17,5.16015 -10.42103,2.90977 -17.35783,8.62264 -20.44597,16.83847 -0.58417,1.55417 -1.54066,7.11719 -2.12552,12.36227 -1.63318,14.64651 -3.22879,17.38375 -13.02912,22.35119 -4.75261,2.40893 -5.91396,3.56718 -7.67021,7.64976 -4.30461,10.00653 -8.22373,31.09871 -8.23339,44.31102 -0.007,10.19333 -1.14566,16.04957 -3.49898,18.00265 -0.80793,0.67052 -4.46861,1.95672 -8.13485,2.85824 -10.60972,2.60888 -10.74514,4.43184 -1.4325,19.28336 6.53172,10.41659 8.46562,16.36814 7.10388,21.86212 -0.47626,1.9215 -3.20281,9.11863 -6.05901,15.99363 -7.42758,17.87857 -8.7847,22.13472 -10.02158,31.42931 -1.83226,13.76866 0.57576,25.2128 10.00962,47.57069 6.38,15.1203 15.23755,55.73004 15.30201,70.15584 0.0342,7.6466 -1.96517,12.052 -7.01368,15.4542 -4.62848,3.1192 -9.69282,3.5463 -22.31236,1.8819 -23.00485,-3.0342 -50.01571,-1.5495 -82.50739,4.5352 -8.76202,1.6409 -22.00595,3.92 -29.43095,5.0647 -7.425,1.1447 -21.22146,3.3924 -30.6588,4.9948 -15.45095,2.6234 -26.21024,3.3964 -31.8412,2.2876 z m 126.9835,-398.72472 c 1.08107,-6.34732 3.49895,-45.95756 4.61779,-75.64952 2.48281,-65.88967 -0.48914,-119.5939 -11.12317,-201 -4.79532,-36.70926 -4.92454,-37.37306 -7.36664,-37.83938 -1.03869,-0.19834 -5.94942,1.56922 -10.91273,3.9279 -13.00159,6.17868 -17.66443,5.84999 -28.44875,-2.00535 -2.3375,-1.70264 -4.23662,-3.43039 -4.22026,-3.83944 0.0164,-0.40905 2.78814,-2.31873 6.15952,-4.24373 7.68708,-4.38919 9.80208,-7.67804 9.807,-15.25 0.004,-6.5233 1.28755,-7.4501 3.02525,-2.18482 1.5937,4.82896 0.62689,9.04096 -4.14076,18.03958 l -4.02833,7.60321 5.32379,-0.68376 c 10.3371,-1.32764 12.57118,-2.31335 16.29429,-7.18937 11.57846,-15.16385 12.47554,-30.0894 2.33042,-38.77325 -4.36023,-3.73219 -18.91171,-9.56159 -23.86788,-9.56159 -1.97666,0 -4.20071,1.13482 -6.6838,3.4104 -3.677,3.36972 -3.69895,3.43519 -1.84007,5.48923 l 1.88132,2.07883 -5.39525,-1.67303 c -8.32546,-2.58168 -24.74564,-2.33657 -32.35611,0.48301 -8.22221,3.04621 -15.90038,8.35524 -23.32711,16.12941 -8.86802,9.28289 -9.06871,11.24919 -1.60019,15.67877 2.39914,1.42293 1.3351,3.58053 -6.11685,12.40338 -10.97229,12.99083 -12.78198,20.68543 -7.90966,33.63094 1.42192,3.77798 3.05202,7.43156 3.62244,8.11906 1.4355,1.73014 11.24475,1.58448 14.73183,-0.21876 1.56215,-0.80782 4.85936,-4.29532 7.32713,-7.75 2.46777,-3.45468 9.16003,-11.11874 14.87167,-17.03124 11.37121,-11.77107 14.24842,-13.14167 17.42149,-8.29896 2.04755,3.12496 1.6851,4.34971 -5.63732,19.04896 -6.94311,13.93783 -8.59229,21.8467 -6.93337,33.25 1.55602,10.69602 2.61221,13.59182 12.49203,34.25 14.6267,30.58364 18.75358,44.92953 18.8424,65.5 0.0343,7.93868 -0.55831,14.87375 -1.75092,20.49109 -1.98761,9.36184 -1.69861,16.93095 0.83338,21.82729 0.8656,1.67388 4.2766,6.11201 7.58001,9.86252 7.63699,8.6706 13.81297,20.58522 18.56696,35.8191 3.16616,10.14578 20.79031,61.9699 23.58724,69.35869 0.72926,1.9265 1.15982,2.13713 2.34982,1.14952 0.80133,-0.66505 1.69836,-2.62646 1.99339,-4.35869 z m 44.9618,-78.64952 c -1.86055,-86.78596 -10.52139,-156.90049 -28.47231,-230.5 -6.44076,-26.40737 -20.5081,-74.29822 -21.52537,-73.28095 -0.21572,0.21572 0.5195,4.19218 1.63383,8.83658 3.69041,15.38121 14.78213,72.06419 18.87223,96.44437 12.44101,74.15801 21.04222,151.34841 26.52,238 0.83445,13.2 1.59241,24.45 1.68435,25 0.72064,4.31111 1.70504,-45.01311 1.28727,-64.5 z M 214.58149,476.14762 c -25.37211,-91.48631 -46.26958,-165.92335 -46.43882,-165.41565 -0.16923,0.5077 1.95263,12.9177 4.71526,27.57778 17.46499,92.67931 38.56131,173.07826 64.72684,246.67661 8.44976,23.76747 22.16307,58.48423 22.83202,57.80179 0.16271,-0.16598 -20.46318,-75.15422 -45.8353,-166.64053 z m -18.69605,114.79004 c -6.16289,-39.6263 -19.80418,-144.68806 -30.50625,-234.9513 l -4.44619,-37.5 0.48473,19.33244 c 1.40469,56.02458 9.14066,128.55592 20.60265,193.16756 5.55373,31.30653 14.53869,73.66547 15.43536,72.76881 0.20141,-0.20141 -0.50523,-5.96929 -1.5703,-12.81751 z m 267.06323,-77.05744 c 2.80506,-53.42292 -1.89792,-111.15888 -13.63536,-167.39386 -3.61569,-17.32305 -10.55182,-45.70361 -11.04846,-45.20697 -0.23331,0.23331 1.14237,9.82532 3.05706,21.31558 9.69151,58.15975 16.03904,126.77522 18.2203,196.95792 0.3723,11.97865 1.01467,20.86628 1.42751,19.75028 0.41283,-1.116 1.30336,-12.55633 1.97895,-25.42295 z M 387.3122,497.09301 c 1.43084,-0.5607 -0.99312,-1.72963 -9.5,-4.58127 -74.16907,-24.86259 -131.53313,-73.62478 -178.42488,-151.66966 -5.90054,-9.82065 -10.86953,-17.85572 -11.0422,-17.85572 -0.17266,0 0.78202,3.99952 2.12152,8.88783 16.5053,60.23353 76.77456,128.16823 137.92457,155.46673 16.50194,7.36677 30.15017,10.56036 45,10.52967 6.6,-0.0136 12.86444,-0.36355 13.92099,-0.77758 z m -75.42099,-99.60665 c 8.01548,-4.35045 15.01133,-7.49785 16.65918,-7.49488 1.56245,0.003 4.64082,1.11378 6.84082,2.46879 4.63198,2.85292 8.02466,3.20719 8.89879,0.92923 0.33703,-0.87827 1.06798,-11.56577 1.62435,-23.75 1.16745,-25.56669 2.95503,-40.31971 6.47944,-53.4753 3.12446,-11.66274 3.16174,-13.94574 0.24742,-15.15203 -1.2375,-0.51223 -9,-1.41839 -17.25,-2.0137 -8.25,-0.59531 -16.8,-1.50583 -19,-2.02339 -2.2,-0.51755 -6.14715,-0.95174 -8.77144,-0.96486 -6.98488,-0.0349 -7.43797,1.46365 -5.83306,19.29229 0.70224,7.80112 1.67947,19.80885 2.17161,26.68385 1.47577,20.6159 -1.21064,41.4536 -7.20326,55.87344 -1.85748,4.46959 -1.98009,5.44 -0.78308,6.19764 0.78058,0.49406 1.5726,0.90519 1.76005,0.91361 0.18746,0.008 6.55909,-3.35969 14.15918,-7.48469 z m -61.26522,-25.75 c -0.26356,-0.6875 -3.95933,-16.1 -8.21282,-34.25 -4.25349,-18.15 -8.28121,-33.86661 -8.95049,-34.9258 -1.10563,-1.74974 -2.58153,-1.93844 -16.14417,-2.06412 -10.38638,-0.0962 -16.6,-0.62624 -20.42595,-1.74222 -3.02426,-0.88214 -5.62802,-1.47452 -5.78613,-1.31641 -0.50798,0.50798 17.81695,27.68754 25.56832,37.92296 15.97367,21.09269 36.53947,43.12704 33.95124,36.37559 z m 82.06538,-204 c -2.84904,-2.251 -16.92158,-19.17861 -18.49724,-22.25 -4.69164,-9.14532 -9.26783,-12.32766 -22.15238,-15.40505 -14.79935,-3.53473 -15.36295,-4.46512 -16.11024,-26.59495 -0.48878,-14.474363 -0.75344,-16.298813 -2.77564,-19.133783 -2.17224,-3.04533 -2.18445,-3.20057 -0.43255,-5.5 3.21361,-4.21797 4.15853,-8.14528 5.03563,-20.929416 0.92648,-13.503872 1.18615,-14.287589 7.63769,-23.051386 2.34229,-3.181764 6.1396,-9.212118 8.43847,-13.400786 5.38665,-9.814761 9.95511,-14.7988711 16.49961,-18.0007971 10.32392,-5.051022 27.12477,-4.31444997 46.21662,2.0262 29.9509,9.9470751 38.34303,19.1476471 41.89092,45.9263851 2.92721,22.09404 1.82385,27.3313 -9.18317,43.58933 -13.24674,19.566213 -17.71007,31.482583 -17.13749,45.754303 l 0.26961,6.71995 -6,0.624 c -8.8443,0.9198 -10.80159,2.0273 -21.01631,11.89175 -5.11679,4.94134 -9.70785,8.98425 -10.20235,8.98425 -0.49449,0 -1.61103,-0.5625 -2.48118,-1.25 z"
       id="path1" />
  </g>
</svg>
